<?xml version="1.0" encoding="utf-8"?>
<!-- Generator: Adobe Illustrator 16.0.0, SVG Export Plug-In . SVG Version: 6.00 Build 0)  -->
<!DOCTYPE svg PUBLIC "-//W3C//DTD SVG 1.1//EN" "http://www.w3.org/Graphics/SVG/1.1/DTD/svg11.dtd">
<svg version="1.1" id="Layer_1" xmlns="http://www.w3.org/2000/svg" xmlns:xlink="http://www.w3.org/1999/xlink" x="0px" y="0px"
	 width="1400px" height="980px" viewBox="0 0 1400 980" enable-background="new 0 0 1400 980" xml:space="preserve">
<g>
	<g>
		<g>
			<rect fill="#FFFFFF" width="1399.995" height="980"/>
		</g>
	</g>
</g>
<g>
	<g>
		<path fill="#EA9BC3" d="M312.591,180.389c-84.018,0-152.37,68.353-152.37,152.371c0,84.01,68.353,152.357,152.37,152.357
			c84.014,0,152.364-68.347,152.364-152.357C464.955,248.741,396.605,180.389,312.591,180.389z"/>
	</g>
	<g>
		<path fill="#85D3E4" d="M1084.539,485.117c84.018,0,152.371-68.347,152.371-152.357c0-84.019-68.354-152.371-152.371-152.371
			c-84.02,0-152.37,68.353-152.37,152.371C932.169,416.77,1000.52,485.117,1084.539,485.117z"/>
	</g>
	<g>
		<path fill="#F26A59" d="M312.591,556.947c-84.018,0-152.37,68.353-152.37,152.365c0,84.016,68.353,152.366,152.37,152.366
			c84.014,0,152.364-68.351,152.364-152.366C464.955,625.3,396.605,556.947,312.591,556.947z"/>
	</g>
	<g>
		<path fill="#A7A9AC" d="M698.557,556.947c-84.01,0-152.355,68.353-152.355,152.365c0,84.016,68.345,152.366,152.355,152.366
			c84.018,0,152.371-68.351,152.371-152.366C850.928,625.3,782.575,556.947,698.557,556.947z"/>
	</g>
	<g>
		<path fill="#86C54C" d="M1084.539,556.947c-84.02,0-152.37,68.353-152.37,152.365c0,84.016,68.351,152.366,152.37,152.366
			c84.018,0,152.371-68.351,152.371-152.366C1236.91,625.3,1168.557,556.947,1084.539,556.947z"/>
	</g>
	<g>
		<path fill="#F6F193" d="M698.557,180.389c-84.01,0-152.355,68.353-152.355,152.371c0,84.01,68.345,152.357,152.355,152.357
			c84.018,0,152.371-68.347,152.371-152.357C850.928,248.741,782.575,180.389,698.557,180.389z"/>
	</g>
	<g>
		<path d="M312.591,176.353c-86.245,0-156.407,70.164-156.407,156.407c0,86.235,70.162,156.395,156.407,156.395
			c86.238,0,156.401-70.159,156.401-156.395C468.992,246.517,398.829,176.353,312.591,176.353z M312.591,485.117
			c-84.018,0-152.37-68.347-152.37-152.357c0-84.019,68.353-152.371,152.37-152.371c84.014,0,152.364,68.353,152.364,152.371
			C464.955,416.77,396.605,485.117,312.591,485.117z"/>
	</g>
	<g>
		<path d="M698.557,176.353c-86.233,0-156.392,70.164-156.392,156.407c0,86.235,70.159,156.395,156.392,156.395
			c86.246,0,156.409-70.159,156.409-156.395C854.966,246.517,784.803,176.353,698.557,176.353z M698.557,485.117
			c-84.01,0-152.355-68.347-152.355-152.357c0-84.019,68.345-152.371,152.355-152.371c84.018,0,152.371,68.353,152.371,152.371
			C850.928,416.77,782.575,485.117,698.557,485.117z"/>
	</g>
	<g>
		<path d="M1084.539,489.154c86.245,0,156.408-70.159,156.408-156.395c0-86.243-70.163-156.407-156.408-156.407
			c-86.246,0-156.409,70.164-156.409,156.407C928.13,418.995,998.293,489.154,1084.539,489.154z M1084.539,180.389
			c84.018,0,152.371,68.353,152.371,152.371c0,84.01-68.354,152.357-152.371,152.357c-84.02,0-152.37-68.347-152.37-152.357
			C932.169,248.741,1000.52,180.389,1084.539,180.389z"/>
	</g>
	<g>
		<path d="M312.591,552.911c-86.245,0-156.407,70.164-156.407,156.401c0,86.24,70.162,156.402,156.407,156.402
			c86.238,0,156.401-70.162,156.401-156.402C468.992,623.075,398.829,552.911,312.591,552.911z M312.591,861.679
			c-84.018,0-152.37-68.351-152.37-152.366c0-84.013,68.353-152.365,152.37-152.365c84.014,0,152.364,68.353,152.364,152.365
			C464.955,793.328,396.605,861.679,312.591,861.679z"/>
	</g>
	<g>
		<path d="M698.557,552.911c-86.233,0-156.392,70.164-156.392,156.401c0,86.24,70.159,156.402,156.392,156.402
			c86.246,0,156.409-70.162,156.409-156.402C854.966,623.075,784.803,552.911,698.557,552.911z M698.557,861.679
			c-84.01,0-152.355-68.351-152.355-152.366c0-84.013,68.345-152.365,152.355-152.365c84.018,0,152.371,68.353,152.371,152.365
			C850.928,793.328,782.575,861.679,698.557,861.679z"/>
	</g>
	<g>
		<path d="M1084.539,552.911c-86.246,0-156.409,70.164-156.409,156.401c0,86.24,70.163,156.402,156.409,156.402
			c86.245,0,156.408-70.162,156.408-156.402C1240.947,623.075,1170.784,552.911,1084.539,552.911z M1084.539,861.679
			c-84.02,0-152.37-68.351-152.37-152.366c0-84.013,68.351-152.365,152.37-152.365c84.018,0,152.371,68.353,152.371,152.365
			C1236.91,793.328,1168.557,861.679,1084.539,861.679z"/>
	</g>
	<g>
		<path fill="#F26A59" d="M1067.919,782.964c8.938,38.51,49.021,49.753,50.723,50.212l1.459,0.442
			c8.056,2.865,16.406,4.327,24.772,4.327c17.34,0,32.273-6.361,41.745-11.693l1.505-0.847l-120.536-43.866L1067.919,782.964z"/>
		<path fill="#F26A59" d="M1119.868,708.507c-14.115,7.666-25.72,16.325-34.485,25.731l-0.817,0.875l140.565,51.151l0.32-0.609
			c6.369-12.066,10.584-25.595,12.535-40.21l0.086-0.632l-110.802-40.326L1119.868,708.507z"/>
		<path fill="#F26A59" d="M1082.062,737.982c-17.743,21.266-15.354,39.081-15.33,39.26l0.069,0.466l0.506,0.508l124.131,45.177
			l0.334-0.21c6.487-4.164,10.201-7.548,10.231-7.578c8.375-7.499,15.493-16.202,21.137-25.846l0.48-0.82l-141.202-51.383
			L1082.062,737.982z"/>
		<path fill="#F26A59" d="M1147.211,657.957c-0.014-0.262-0.049-0.521-0.084-0.78c-0.044-0.3-0.085-0.6-0.085-0.911
			c0-13.155,10.704-23.859,23.865-23.859c13.16,0,23.862,10.704,23.862,23.859c0,6.172-2.388,12.049-6.727,16.555l-0.849,0.875
			l48.171,17.531l-0.352-1.438c-0.193-0.793-0.337-1.292-0.398-1.496c-18.777-63.239-56.634-65.067-60.889-65.067l-0.589,0.027
			h-0.739c-15.006,0-26.207,3.85-33.313,11.438c-4.173,4.477-7.149,10.372-8.849,17.526l-0.164,0.688l17.222,6.269L1147.211,657.957
			z"/>
		<path fill="#F26A59" d="M1236.141,694.726l-51.709-18.823l-0.333,0.224c-3.911,2.627-8.475,4.015-13.191,4.015
			c-10.397,0-19.759-7.034-22.758-17.103l-0.113-0.38l-18.545-6.746l-0.142,0.963c-0.771,5.203-0.623,9.284-0.571,9.682
			l0.032,35.268l109.628,39.901l0.102-1.016c1.97-19.958-0.603-37.106-2.312-45.552L1236.141,694.726z"/>
		<path fill="#D75E50" d="M1251.73,695.917c-1.236-7.424-2.478-11.813-2.49-11.846c-21.497-72.403-66.83-76.071-75.699-76.071
			c-0.359,0-0.631,0.015-0.855,0.023c-19.822,0.01-34.804,5.541-44.877,16.447c-5.508,5.948-9.512,13.52-11.907,22.499
			c-0.415,1.573-0.779,3.11-1.059,4.588c-1.602,8.3-1.327,14.897-1.257,16.136v25.789c0,0.578-0.369,1.036-0.679,1.326l-0.317,0.329
			c-1.505,0.823-2.945,1.651-4.39,2.485c-16.082,9.305-28.85,19.71-38.187,31.069c-1.062,1.285-2.064,2.569-3.013,3.841
			c-11.804,15.873-14.915,30.158-15.448,39.345c-0.114,1.771-0.13,3.445-0.059,4.978c0.08,1.975,0.27,3.174,0.309,3.42
			c7.813,51.56,60.943,67.071,63.2,67.705c9.747,3.44,19.802,5.189,29.87,5.189c27.184,0,49.179-12.775,59.871-20.389
			c1.772-1.273,3.275-2.4,4.436-3.336c2.033-1.61,3.154-2.642,3.226-2.707c10.174-9.129,18.66-19.817,25.186-31.742
			c0.767-1.37,1.483-2.763,2.18-4.146c6.103-12.213,10.313-25.731,12.52-40.185c0.253-1.568,0.476-3.134,0.668-4.694
			c2.207-18.104,0.979-34.377-0.442-44.837C1252.26,699.274,1251.988,697.512,1251.73,695.917z M1242.095,742.414
			c-0.171,1.534-0.36,3.097-0.589,4.661c-2.021,14.375-6.197,27.723-12.412,39.679c-0.704,1.354-1.447,2.711-2.23,4.062
			c-5.902,10.307-13.416,19.587-22.344,27.589c-0.484,0.441-3.055,2.729-7.367,5.734c-1.409,0.976-3.027,2.045-4.785,3.137
			c-10.623,6.581-27.49,14.426-47.494,14.426c-8.771,0-17.537-1.532-26.053-4.553l-1.1-0.332
			c-1.913-0.512-46.388-12.965-54.145-56.318c-0.056-0.301-0.123-0.597-0.197-0.89c-0.074-0.305-0.148-0.61-0.193-0.934
			l-0.128-0.717c-0.036-0.169-0.147-1.041-0.167-2.499c-0.108-5.713,1.146-20.892,15.114-38.401
			c0.978-1.228,2.031-2.474,3.138-3.723c9.201-10.352,21.621-19.812,36.934-28.124l6.979-3.78v-33.643l-0.025-1.045
			c-0.008-0.108-0.351-4.907,0.739-11.494c0.236-1.442,0.553-2.945,0.936-4.51c1.89-7.522,5.133-13.786,9.647-18.612
			c7.824-8.375,19.964-12.624,36.077-12.624c0,0,1.05-0.034,1.119-0.034c4.553,0,45.119,1.9,64.679,67.779
			c0.111,0.418,0.606,2.226,1.235,5.071c0.316,1.471,0.666,3.23,1.021,5.251C1242.314,707.856,1244.08,723.979,1242.095,742.414z"/>
		<path fill="#FFFFFF" d="M1170.907,636.16c-11.094,0-20.121,9.021-20.121,20.105c0,1.26,0.131,2.535,0.401,3.908
			c0.396,1.983,1.143,3.93,2.291,5.956c3.598,6.326,10.275,10.257,17.429,10.257c2.323,0,4.7-0.455,7.062-1.35
			c1.924-0.729,3.756-1.783,5.433-3.135c4.838-3.864,7.614-9.563,7.614-15.637C1191.016,645.181,1181.996,636.16,1170.907,636.16z"
			/>
		<path fill="#231F20" d="M1256.568,703.378c-0.221-1.792-0.438-3.53-0.677-5.124c-1.22-8.238-2.626-13.699-3.039-15.228
			c-22.275-74.984-69.974-78.782-79.312-78.782c-0.82,0-1.26,0.032-1.369,0.037c-20.47,0-36.339,5.948-47.163,17.683
			c-5.864,6.358-10.126,14.288-12.673,23.576c-0.422,1.524-0.774,3.008-1.066,4.453c-1.954,9.518-1.494,17.024-1.432,17.907
			l-0.008,24.466l-2.404,1.38c-1.765,1.003-3.499,1.995-5.168,3.014c-15.194,9.241-27.489,19.646-36.533,30.918
			c-1.02,1.28-1.995,2.543-2.908,3.81c-11.242,15.513-14.394,29.519-15.063,38.541c-0.132,1.787-0.166,3.386-0.151,4.78
			c0.044,3.248,0.377,5.391,0.52,6.184c8.23,54.422,63.422,69.921,65.824,70.573c10,3.556,20.406,5.36,30.928,5.36
			c31.584,0,55.979-16.229,65.004-23.208c1.9-1.471,3.296-2.632,4.39-3.603c0.295-0.262,0.516-0.455,0.65-0.597
			c10.72-9.595,19.602-20.841,26.396-33.423c0.734-1.365,1.42-2.74,2.098-4.109c5.988-12.158,10.175-25.518,12.439-39.701
			c0.234-1.561,0.457-3.107,0.662-4.643C1258.814,729.756,1257.813,713.697,1256.568,703.378z M1252.958,745.971
			c-0.192,1.561-0.415,3.126-0.668,4.694c-2.206,14.453-6.417,27.972-12.52,40.185c-0.696,1.384-1.413,2.776-2.18,4.146
			c-6.525,11.925-15.012,22.613-25.186,31.742c-0.071,0.065-1.192,1.097-3.226,2.707c-1.16,0.936-2.663,2.063-4.436,3.336
			c-10.692,7.613-32.688,20.389-59.871,20.389c-10.068,0-20.123-1.749-29.87-5.189c-2.257-0.634-55.387-16.146-63.2-67.705
			c-0.039-0.246-0.229-1.445-0.309-3.42c-0.071-1.532-0.056-3.207,0.059-4.978c0.533-9.187,3.645-23.472,15.448-39.345
			c0.948-1.271,1.951-2.556,3.013-3.841c9.337-11.359,22.104-21.765,38.187-31.069c1.444-0.834,2.885-1.662,4.39-2.485l0.317-0.329
			c0.31-0.29,0.679-0.748,0.679-1.326v-25.789c-0.07-1.238-0.345-7.836,1.257-16.136c0.279-1.478,0.644-3.015,1.059-4.588
			c2.396-8.979,6.399-16.551,11.907-22.499c10.073-10.906,25.055-16.438,44.877-16.447c0.225-0.009,0.496-0.023,0.855-0.023
			c8.869,0,54.202,3.668,75.699,76.071c0.013,0.033,1.254,4.422,2.49,11.846c0.258,1.595,0.529,3.357,0.785,5.217
			C1253.938,711.594,1255.165,727.866,1252.958,745.971z"/>
		<path fill="#231F20" d="M1239.463,692.319c-0.629-2.846-1.124-4.653-1.235-5.071c-19.56-65.879-60.126-67.779-64.679-67.779
			c-0.069,0-1.119,0.034-1.119,0.034c-16.113,0-28.253,4.249-36.077,12.624c-4.515,4.826-7.758,11.09-9.647,18.612
			c-0.383,1.564-0.699,3.067-0.936,4.51c-1.09,6.587-0.747,11.386-0.739,11.494l0.025,1.045v33.643l-6.979,3.78
			c-15.313,8.313-27.732,17.772-36.934,28.124c-1.106,1.249-2.16,2.495-3.138,3.723c-13.968,17.51-15.223,32.688-15.114,38.401
			c0.02,1.458,0.131,2.33,0.167,2.499l0.128,0.717c0.045,0.323,0.119,0.629,0.193,0.934c0.074,0.293,0.142,0.589,0.197,0.89
			c7.757,43.354,52.231,55.807,54.145,56.318l1.1,0.332c8.516,3.021,17.281,4.553,26.053,4.553c20.004,0,36.871-7.845,47.494-14.426
			c1.758-1.092,3.376-2.161,4.785-3.137c4.313-3.006,6.883-5.293,7.367-5.734c8.928-8.002,16.441-17.282,22.344-27.589
			c0.783-1.351,1.526-2.708,2.23-4.062c6.215-11.956,10.391-25.304,12.412-39.679c0.229-1.564,0.418-3.127,0.589-4.661
			c1.985-18.435,0.22-34.558-1.611-44.844C1240.129,695.55,1239.779,693.79,1239.463,692.319z M1130.236,652.216
			c1.699-7.154,4.676-13.05,8.849-17.526c7.106-7.588,18.308-11.438,33.313-11.438h0.739l0.589-0.027
			c4.255,0,42.111,1.828,60.889,65.067c0.062,0.204,0.205,0.703,0.398,1.496l0.352,1.438l-48.171-17.531l0.849-0.875
			c4.339-4.506,6.727-10.383,6.727-16.555c0-13.155-10.702-23.859-23.862-23.859c-13.161,0-23.865,10.704-23.865,23.859
			c0,0.312,0.041,0.611,0.085,0.911c0.035,0.26,0.07,0.519,0.084,0.78l0.083,1.215l-17.222-6.269L1130.236,652.216z
			 M1183.401,671.902c-1.677,1.352-3.509,2.406-5.433,3.135c-2.361,0.895-4.738,1.35-7.062,1.35
			c-7.153,0-13.831-3.931-17.429-10.257c-1.148-2.026-1.896-3.973-2.291-5.956c-0.271-1.373-0.401-2.648-0.401-3.908
			c0-11.085,9.027-20.105,20.121-20.105c11.089,0,20.108,9.021,20.108,20.105C1191.016,662.339,1188.239,668.038,1183.401,671.902z
			 M1186.618,826.252c-9.472,5.332-24.405,11.693-41.745,11.693c-8.366,0-16.717-1.462-24.772-4.327l-1.459-0.442
			c-1.702-0.459-41.784-11.702-50.723-50.212l-0.332-1.425l120.536,43.866L1186.618,826.252z M1223.14,789.759
			c-5.644,9.644-12.762,18.347-21.137,25.846c-0.03,0.03-3.744,3.414-10.231,7.578l-0.334,0.21l-124.131-45.177l-0.506-0.508
			l-0.069-0.466c-0.023-0.179-2.413-17.994,15.33-39.26l0.356-0.427l141.202,51.383L1223.14,789.759z M1237.986,745.445
			c-1.951,14.615-6.166,28.144-12.535,40.21l-0.32,0.609l-140.565-51.151l0.817-0.875c8.766-9.406,20.37-18.065,34.485-25.731
			l7.402-4.02l110.802,40.326L1237.986,745.445z M1238.54,740.71l-0.102,1.016l-109.628-39.901l-0.032-35.268
			c-0.052-0.397-0.2-4.479,0.571-9.682l0.142-0.963l18.545,6.746l0.113,0.38c2.999,10.068,12.36,17.103,22.758,17.103
			c4.717,0,9.28-1.388,13.191-4.015l0.333-0.224l51.709,18.823l0.088,0.433C1237.938,703.604,1240.51,720.752,1238.54,740.71z"/>
	</g>
	<g>
		<path fill="#FFFFFF" d="M1075.274,674.548c-24.021-39.718-45.438-50.55-45.655-50.654c-9.444-6.161-17.34-7.428-22.338-7.428
			c-3.394,0-5.407,0.593-5.429,0.6c-0.424,0.085-12.668,2.025-22.459,17.784c-0.202,0.268-0.635,0.808-1.34,1.889
			c-3.349,5.067-14.572,24.592-18.791,63.45c-0.066,0.494-5.877,44.698,11.869,84.544c0.198,0.531,15.301,40.467,57.807,40.471
			c0.004,0,0.004,0,0.008,0c5.823,0,11.986-0.748,18.323-2.225c2.052-0.428,3.964-0.905,5.818-1.425
			c50.857-14.213,47.274-63.182,47.095-65.258C1099.45,712.494,1075.516,674.924,1075.274,674.548z M1043.277,804.833
			c-4.014,0.889-8.086,1.34-12.112,1.34c-0.632,0-1.263-0.012-1.893-0.035c-25.517-0.842-47.204-18.868-52.739-43.837
			c-3.194-14.441-0.628-29.289,7.228-41.814c8.029-12.809,20.571-21.663,35.313-24.93c4.005-0.886,8.093-1.337,12.158-1.337
			c25.999,0,48.956,18.452,54.586,43.878C1092.487,768.222,1073.405,798.161,1043.277,804.833z"/>
		<path fill="#FED30F" d="M1031.231,698.186c-3.774,0-7.577,0.416-11.298,1.241c-13.7,3.037-25.352,11.263-32.812,23.165
			c-7.299,11.638-9.687,25.436-6.718,38.85c5.141,23.202,25.291,39.953,49.004,40.736c4.335,0.135,8.697-0.261,13.01-1.215
			c27.994-6.2,45.729-34.017,39.527-62.009C1076.716,715.332,1055.384,698.186,1031.231,698.186z"/>
		<path fill="#231F20" d="M1104.14,756.092c-0.743-44.781-25.288-83.311-25.504-83.643c-24.68-40.808-46.367-51.676-47.061-51.994
			c-17.205-11.258-30.773-7.248-30.579-7.248c-0.714,0.098-14.192,2.205-24.808,19.325c0,0-0.55,0.652-1.448,2.032
			c-4.44,6.722-15.224,26.533-19.41,65.137c-0.063,0.452-6.041,45.738,12.128,86.515c0.154,0.432,16.154,42.945,61.48,42.951
			c0.004,0,0.004,0,0.008,0c6.124,0,12.595-0.784,19.175-2.317c2.1-0.435,4.095-0.937,6.035-1.479
			C1108.223,810.261,1104.178,756.495,1104.14,756.092z M1053.088,821.554c-1.854,0.52-3.767,0.997-5.818,1.425
			c-6.337,1.477-12.5,2.225-18.323,2.225c-0.004,0-0.004,0-0.008,0c-42.506-0.004-57.608-39.939-57.807-40.471
			c-17.746-39.846-11.936-84.05-11.869-84.544c4.219-38.858,15.442-58.383,18.791-63.45c0.705-1.081,1.138-1.621,1.34-1.889
			c9.791-15.759,22.035-17.699,22.459-17.784c0.021-0.007,2.035-0.6,5.429-0.6c4.998,0,12.894,1.267,22.338,7.428
			c0.218,0.104,21.634,10.937,45.655,50.654c0.241,0.376,24.176,37.946,24.908,81.748
			C1100.362,758.372,1103.945,807.341,1053.088,821.554z"/>
		<path fill="#231F20" d="M1031.231,694.22c-4.065,0-8.153,0.451-12.158,1.337c-14.741,3.267-27.283,12.121-35.313,24.93
			c-7.855,12.525-10.422,27.373-7.228,41.814c5.535,24.969,27.223,42.995,52.739,43.837c0.63,0.023,1.261,0.035,1.893,0.035
			c4.026,0,8.099-0.451,12.112-1.34c30.128-6.672,49.21-36.611,42.54-66.735C1080.188,712.672,1057.23,694.22,1031.231,694.22z
			 M1042.418,800.963c-4.313,0.954-8.675,1.35-13.01,1.215c-23.713-0.783-43.863-17.534-49.004-40.736
			c-2.969-13.414-0.581-27.212,6.718-38.85c7.46-11.902,19.111-20.128,32.812-23.165c3.721-0.825,7.523-1.241,11.298-1.241
			c24.152,0,45.484,17.146,50.714,40.769C1088.147,766.946,1070.412,794.763,1042.418,800.963z"/>
	</g>
	<g>
		<path fill="#FFFFFF" d="M806.066,661.984c-3.235,0-5.866,2.629-5.866,5.863c0,3.232,2.631,5.863,5.866,5.863
			c3.236,0,5.867-2.631,5.867-5.863C811.934,664.613,809.303,661.984,806.066,661.984z"/>
		<path fill="#FFFFFF" d="M675.317,647.755c-7.156,0-12.976,5.822-12.976,12.98c0,7.156,5.82,12.976,12.976,12.976
			c7.158,0,12.983-5.819,12.983-12.976C688.301,653.577,682.476,647.755,675.317,647.755z"/>
		<path fill="#FFFFFF" d="M718.008,673.711c3.236,0,5.864-2.631,5.864-5.863c0-3.234-2.628-5.863-5.864-5.863
			c-3.232,0-5.863,2.629-5.863,5.863C712.145,671.08,714.775,673.711,718.008,673.711z"/>
		<path fill="#FFFFFF" d="M775.826,762.489c-8.14,0-14.766,6.622-14.766,14.767c0,8.133,6.626,14.749,14.766,14.749
			c8.137,0,14.754-6.616,14.754-14.749C790.58,769.111,783.963,762.489,775.826,762.489z"/>
		<path fill="#FFFFFF" d="M718.008,775.836c-6.661,0-12.084,5.427-12.084,12.101c0,6.661,5.423,12.084,12.084,12.084
			c6.669,0,12.097-5.423,12.097-12.084C730.104,781.263,724.677,775.836,718.008,775.836z"/>
		<path fill="#FFFFFF" d="M718.008,697.566c-10.095,0-18.311,8.213-18.311,18.313c0,10.098,8.216,18.313,18.311,18.313
			c10.099,0,18.312-8.215,18.312-18.313C736.319,705.779,728.106,697.566,718.008,697.566z"/>
		<path fill="#FED30F" d="M810.66,630.192H675.446c-18.296,0-33.185,14.885-33.185,33.18c0,11.912,6.468,22.977,16.882,28.874
			l7.851,4.472v103.654c0,9.122,7.418,16.543,16.537,16.543h119.185c9.117,0,16.535-7.421,16.535-16.543V696.663l7.799-4.474
			c10.366-5.899,16.802-16.939,16.802-28.817C843.851,645.077,828.961,630.192,810.66,630.192z M769.599,680.826
			c4.618,0,8.373,3.757,8.373,8.373c0,4.612-3.755,8.367-8.373,8.367c-4.62,0-8.375-3.755-8.375-8.367
			C761.224,684.583,764.979,680.826,769.599,680.826z M718.008,657.694c5.597,0,10.152,4.554,10.152,10.153
			c0,5.598-4.556,10.151-10.152,10.151c-5.6,0-10.148-4.554-10.148-10.151C707.859,662.248,712.408,657.694,718.008,657.694z
			 M675.317,677.999c-9.517,0-17.263-7.745-17.263-17.264c0-9.524,7.747-17.269,17.263-17.269c9.525,0,17.271,7.744,17.271,17.269
			C692.589,670.254,684.843,677.999,675.317,677.999z M718.008,804.308c-9.028,0-16.372-7.345-16.372-16.371
			c0-9.038,7.344-16.389,16.372-16.389c9.034,0,16.382,7.351,16.382,16.389C734.39,796.963,727.042,804.308,718.008,804.308z
			 M718.008,738.481c-12.463,0-22.599-10.14-22.599-22.602c0-12.464,10.136-22.602,22.599-22.602c12.459,0,22.6,10.138,22.6,22.602
			C740.607,728.342,730.467,738.481,718.008,738.481z M775.826,796.292c-10.503,0-19.052-8.54-19.052-19.036
			c0-10.508,8.549-19.054,19.052-19.054c10.5,0,19.04,8.546,19.04,19.054C794.866,787.752,786.326,796.292,775.826,796.292z
			 M806.066,677.999c-5.597,0-10.154-4.554-10.154-10.151c0-5.6,4.558-10.153,10.154-10.153c5.598,0,10.153,4.554,10.153,10.153
			C816.22,673.445,811.664,677.999,806.066,677.999z"/>
		<path fill="#AE8F30" d="M810.66,616.846H675.446c-25.657,0-46.534,20.873-46.534,46.526c0,16.705,9.061,32.222,23.648,40.497
			l1.084,0.618v95.885c0,16.478,13.408,29.882,29.885,29.882h119.185c16.47,0,29.866-13.404,29.866-29.882v-95.975l1.085-0.618
			c14.514-8.267,23.527-23.751,23.527-40.407C857.193,637.719,836.317,616.846,810.66,616.846z M829.175,695.913l-5.637,3.231
			v101.228c0,11.485-9.341,20.829-20.823,20.829H683.53c-11.484,0-20.824-9.344-20.824-20.829V699.209l-5.678-3.233
			c-11.753-6.655-19.055-19.151-19.055-32.604c0-20.659,16.811-37.467,37.473-37.467H810.66c20.666,0,37.476,16.808,37.476,37.467
			C848.136,676.785,840.873,689.258,829.175,695.913z"/>
		<path fill="#FFFFFF" d="M769.599,693.278c2.251,0,4.085-1.83,4.085-4.079c0-2.254-1.834-4.086-4.085-4.086
			c-2.253,0-4.087,1.832-4.087,4.086C765.512,691.448,767.346,693.278,769.599,693.278z"/>
		<path fill="#231F20" d="M810.66,612.559H675.446c-28.023,0-50.821,22.794-50.821,50.813c0,17.824,9.446,34.412,24.732,43.593
			v93.407c0,18.841,15.328,34.171,34.173,34.171h119.185c18.83,0,34.154-15.33,34.154-34.171V706.87
			c15.217-9.171,24.61-25.722,24.61-43.498C861.479,635.353,838.683,612.559,810.66,612.559z M833.666,703.779l-1.085,0.618v95.975
			c0,16.478-13.396,29.882-29.866,29.882H683.53c-16.478,0-29.885-13.404-29.885-29.882v-95.885l-1.084-0.618
			c-14.587-8.275-23.648-23.792-23.648-40.497c0-25.653,20.877-46.526,46.534-46.526H810.66c25.657,0,46.533,20.873,46.533,46.526
			C857.193,680.028,848.18,695.513,833.666,703.779z"/>
		<path fill="#231F20" d="M810.66,625.905H675.446c-20.662,0-37.473,16.808-37.473,37.467c0,13.452,7.302,25.948,19.055,32.604
			l5.678,3.233v101.163c0,11.485,9.339,20.829,20.824,20.829h119.185c11.482,0,20.823-9.344,20.823-20.829V699.145l5.637-3.231
			c11.698-6.655,18.961-19.128,18.961-32.541C848.136,642.713,831.326,625.905,810.66,625.905z M827.049,692.189l-7.799,4.474
			v103.709c0,9.122-7.418,16.543-16.535,16.543H683.53c-9.118,0-16.537-7.421-16.537-16.543V696.718l-7.851-4.472
			c-10.414-5.897-16.882-16.962-16.882-28.874c0-18.295,14.889-33.18,33.185-33.18H810.66c18.301,0,33.19,14.885,33.19,33.18
			C843.851,675.25,837.415,686.29,827.049,692.189z"/>
		<path fill="#231F20" d="M675.317,643.467c-9.517,0-17.263,7.744-17.263,17.269c0,9.519,7.747,17.264,17.263,17.264
			c9.525,0,17.271-7.745,17.271-17.264C692.589,651.211,684.843,643.467,675.317,643.467z M675.317,673.711
			c-7.156,0-12.976-5.819-12.976-12.976c0-7.158,5.82-12.98,12.976-12.98c7.158,0,12.983,5.822,12.983,12.98
			C688.301,667.892,682.476,673.711,675.317,673.711z"/>
		<path fill="#231F20" d="M718.008,677.999c5.597,0,10.152-4.554,10.152-10.151c0-5.6-4.556-10.153-10.152-10.153
			c-5.6,0-10.148,4.554-10.148,10.153C707.859,673.445,712.408,677.999,718.008,677.999z M718.008,661.984
			c3.236,0,5.864,2.629,5.864,5.863c0,3.232-2.628,5.863-5.864,5.863c-3.232,0-5.863-2.631-5.863-5.863
			C712.145,664.613,714.775,661.984,718.008,661.984z"/>
		<path fill="#231F20" d="M718.008,693.278c-12.463,0-22.599,10.138-22.599,22.602c0,12.462,10.136,22.602,22.599,22.602
			c12.459,0,22.6-10.14,22.6-22.602C740.607,703.416,730.467,693.278,718.008,693.278z M718.008,734.192
			c-10.095,0-18.311-8.215-18.311-18.313c0-10.101,8.216-18.313,18.311-18.313c10.099,0,18.312,8.213,18.312,18.313
			C736.319,725.978,728.106,734.192,718.008,734.192z"/>
		<path fill="#231F20" d="M769.599,697.566c4.618,0,8.373-3.755,8.373-8.367c0-4.616-3.755-8.373-8.373-8.373
			c-4.62,0-8.375,3.757-8.375,8.373C761.224,693.812,764.979,697.566,769.599,697.566z M769.599,685.113
			c2.251,0,4.085,1.832,4.085,4.086c0,2.249-1.834,4.079-4.085,4.079c-2.253,0-4.087-1.83-4.087-4.079
			C765.512,686.945,767.346,685.113,769.599,685.113z"/>
		<path fill="#231F20" d="M775.826,758.202c-10.503,0-19.052,8.546-19.052,19.054c0,10.496,8.549,19.036,19.052,19.036
			c10.5,0,19.04-8.54,19.04-19.036C794.866,766.748,786.326,758.202,775.826,758.202z M775.826,792.005
			c-8.14,0-14.766-6.616-14.766-14.749c0-8.145,6.626-14.767,14.766-14.767c8.137,0,14.754,6.622,14.754,14.767
			C790.58,785.389,783.963,792.005,775.826,792.005z"/>
		<path fill="#231F20" d="M718.008,771.548c-9.028,0-16.372,7.351-16.372,16.389c0,9.026,7.344,16.371,16.372,16.371
			c9.034,0,16.382-7.345,16.382-16.371C734.39,778.898,727.042,771.548,718.008,771.548z M718.008,800.021
			c-6.661,0-12.084-5.423-12.084-12.084c0-6.674,5.423-12.101,12.084-12.101c6.669,0,12.097,5.427,12.097,12.101
			C730.104,794.598,724.677,800.021,718.008,800.021z"/>
		<path fill="#231F20" d="M806.066,657.694c-5.597,0-10.154,4.554-10.154,10.153c0,5.598,4.558,10.151,10.154,10.151
			c5.598,0,10.153-4.554,10.153-10.151C816.22,662.248,811.664,657.694,806.066,657.694z M806.066,673.711
			c-3.235,0-5.866-2.631-5.866-5.863c0-3.234,2.631-5.863,5.866-5.863c3.236,0,5.867,2.629,5.867,5.863
			C811.934,671.08,809.303,673.711,806.066,673.711z"/>
	</g>
	<g>
		<path fill="#FED30F" d="M680.588,209.991c-0.286-0.267-14.516-13.778-43.756-12.64c-1.302-0.045-2.426-0.06-3.52-0.06
			c-26.957,0-40.1,12.438-40.228,12.566c-18.67,14.897-15.101,42.653-15.061,42.932l2.525,11.683l58.48,12.037
			c1.673,0.382,4.439,2.357,4.535,7.348c-0.095,1.928-1.302,5.451-5.23,6.028l-51.068,5.867l21.06,98.104L633,398.933
			c1.676,0.387,4.45,2.352,4.567,7.341c-0.102,1.936-1.325,5.459-5.245,6.037l-19.552,2.235l14.912,69.444
			c3.736,11.769,8.198,12.111,8.692,12.111l0.509-0.108l0.305,0.129l-0.019-0.015c0.501,0,4.956-0.348,8.719-12.276l27.025-125.916
			l-42.625-4.908c-3.887-0.551-5.069-4-5.165-5.747c0.087-4.991,2.796-6.925,4.392-7.303l49.437-10.167l16.58-77.146
			C695.532,252.515,699.067,224.728,680.588,209.991z"/>
		<path d="M683.264,206.964c-0.571-0.564-14.337-13.718-43.05-13.718c-1.16,0-2.323,0.02-3.382,0.065
			c-31.106-1.145-45.981,13.076-46.419,13.517c-20.298,16.183-16.554,45.285-16.368,46.667l3.107,14.407l60.918,12.532
			c0.054,0.02,1.397,0.514,1.453,3.364c0,0.071-0.106,1.841-1.713,2.068l-55.435,6.377l22.549,105.038l27.125,5.578
			c0.055,0.021,1.405,0.516,1.471,3.348c0,0.075-0.116,1.855-1.716,2.09l-23.922,2.745l15.903,73.986
			c4.312,13.646,10.249,15.119,12.59,15.119h0.794c2.35,0,8.261-1.467,12.616-15.286l28.014-130.451L630.801,349
			c-1.391-0.201-1.61-1.568-1.64-1.81c0.054-2.826,1.317-3.443,1.226-3.287l51.964-10.686l17.144-79.874
			C699.671,252.12,703.405,223.011,683.264,206.964z M695.532,252.643l-16.58,77.146l-49.437,10.167
			c-1.595,0.378-4.304,2.312-4.392,7.303c0.096,1.747,1.278,5.196,5.165,5.747l42.625,4.908l-27.025,125.916
			c-3.763,11.928-8.218,12.276-8.719,12.276l0.019,0.015l-0.305-0.129l-0.509,0.108c-0.494,0-4.956-0.342-8.692-12.111
			l-14.912-69.444l19.552-2.235c3.92-0.578,5.143-4.101,5.245-6.037c-0.118-4.989-2.891-6.954-4.567-7.341l-24.676-5.077
			l-21.06-98.104l51.068-5.867c3.928-0.578,5.135-4.1,5.23-6.028c-0.095-4.99-2.862-6.966-4.535-7.348l-58.48-12.037l-2.525-11.683
			c-0.04-0.279-3.609-28.035,15.061-42.932c0.128-0.128,13.271-12.566,40.228-12.566c1.094,0,2.218,0.015,3.52,0.06
			c29.24-1.138,43.471,12.373,43.756,12.64C699.067,224.728,695.532,252.515,695.532,252.643z"/>
		<rect x="634.739" y="50.975" width="4.041" height="123.062"/>
		<polygon points="664.956,85.443 660.956,84.872 648.255,173.749 652.263,174.318 		"/>
		<polygon points="664.861,174.691 682.447,123.908 678.619,122.582 661.036,173.372 		"/>
		
			<rect x="572.029" y="127.572" transform="matrix(0.1414 0.9899 -0.9899 0.1414 657.9621 -499.4501)" width="89.779" height="4.047"/>
		<polygon points="612.479,173.372 594.902,122.582 591.085,123.908 608.661,174.691 		"/>
	</g>
	<g>
		<path fill="#F26A59" d="M812.879,328.464c-11.488-9.498-25.371-14.508-40.171-14.508c-12.514,0-23.322,3.484-30.192,6.403
			l-0.662,0.282l-0.664-0.282c-6.864-2.919-17.681-6.403-30.187-6.403c-15.013,0-28.458,4.816-39.968,14.327
			c-2.964,2.377-28.446,24.756-16.042,82.444l0.15,0.641c1.775,6.806,18.523,66.92,59.037,69.051l1.208,0.021
			c4.149,0,15.05-0.604,25.674-6.231l0.791-0.416l0.795,0.416c10.605,5.616,21.498,6.231,25.689,6.231l1.239-0.026
			c40.444-2.126,57.21-62.24,58.989-69.085l0.147-0.628C841.125,353.02,815.808,330.808,812.879,328.464z"/>
		<path fill="#619741" d="M745.614,255.818c-5.763-8.782-17.271-13.491-34.213-14.007c-1.248,4.996-4.795,22.679,3.869,34.414
			c5.553,7.517,15.192,11.332,28.653,11.333c0.004,0,0.004,0,0.008,0c1.029,0,2.08-0.022,3.162-0.068
			C748.585,283.241,753.27,267.478,745.614,255.818z"/>
		<path d="M815.01,325.844c-12.085-9.985-26.711-15.264-42.302-15.264c-11.757,0-22.012,2.928-29.167,5.733h-1.487
			c0.331-2.634,4.61-32.753,27.342-50.159c0.823-0.629,0.978-1.805,0.351-2.626c-0.633-0.824-1.808-0.978-2.627-0.35
			c-5.633,4.312-10.173,9.308-13.844,14.472c0.913-7.113,0.555-16.136-4.515-23.871c-6.647-10.144-19.686-15.442-38.756-15.75
			l-1.407-0.022l-0.412,1.343c-0.301,0.966-7.186,23.837,4.063,39.085c6.294,8.537,16.952,12.867,31.676,12.869
			c0.004,0,0.004,0,0.008,0c0.517,0,1.046-0.012,1.572-0.023c-5.303,11.755-6.846,21.993-7.143,24.35
			c-7.036-2.579-16.56-5.052-27.358-5.052c-15.818,0-29.994,5.079-42.087,15.084c-3.122,2.498-30.049,26.109-17.217,85.813
			l0.176,0.704c1.833,7.095,19.222,69.352,62.185,71.608l1.284,0.027c4.342,0,15.46-0.616,26.51-6.216
			c11.039,5.6,22.172,6.216,26.506,6.216h0.022l1.324-0.027c42.893-2.256,60.28-64.513,62.137-71.64l0.168-0.706
			C844.854,351.738,818.085,328.303,815.01,325.844z M743.932,287.558c-0.004,0-0.004,0-0.008,0
			c-13.461-0.001-23.101-3.816-28.653-11.333c-8.664-11.734-5.117-29.417-3.869-34.414c16.941,0.516,28.45,5.225,34.213,14.007
			c7.655,11.66,2.971,27.423,1.479,31.672C746.012,287.535,744.961,287.558,743.932,287.558z M828.714,410.702l-0.147,0.628
			c-1.779,6.845-18.545,66.959-58.989,69.085l-1.239,0.026c-4.191,0-15.084-0.615-25.689-6.231l-0.795-0.416l-0.791,0.416
			c-10.624,5.627-21.524,6.231-25.674,6.231l-1.208-0.021c-40.514-2.131-57.262-62.245-59.037-69.051l-0.15-0.641
			c-12.404-57.688,13.077-80.067,16.042-82.444c11.51-9.511,24.955-14.327,39.968-14.327c12.506,0,23.322,3.484,30.187,6.403
			l0.664,0.282l0.662-0.282c6.87-2.919,17.679-6.403,30.192-6.403c14.8,0,28.683,5.01,40.171,14.508
			C815.808,330.808,841.125,353.02,828.714,410.702z"/>
	</g>
	<g>
		<rect x="153.96" y="296.432" fill="#85D3E4" width="76.702" height="121.579"/>
		<path fill="#FFFFFF" d="M153.96,292.696h78.569c1.033,0,1.868,0.835,1.868,1.868v125.314c0,1.032-0.835,1.868-1.868,1.868H153.96
			v41.817h99.945V243.437H153.96V292.696z"/>
		<polygon fill="#FFFFFF" points="304.02,239.702 267.861,188.168 258.03,239.702 		"/>
		<rect x="200.069" y="161.425" fill="#F26A59" width="64.917" height="20.188"/>
		<polygon fill="#FFFFFF" points="264.596,185.348 199.103,185.348 155.958,239.702 254.226,239.702 262.189,197.962 		"/>
		<rect x="257.64" y="243.437" fill="#FFFFFF" width="48.105" height="220.127"/>
		<path d="M309.472,241.49c-0.001-0.04-0.007-0.077-0.012-0.117c-0.013-0.122-0.037-0.239-0.072-0.353
			c-0.01-0.035-0.019-0.068-0.031-0.102c-0.055-0.147-0.125-0.287-0.213-0.415c-0.001-0.002-0.002-0.004-0.003-0.006l-40.42-57.607
			v-23.333c0-1.032-0.835-1.868-1.868-1.868h-68.652c-1.032,0-1.868,0.836-1.868,1.868v23.271l-45.705,57.579
			c-0.011,0.013-0.016,0.03-0.026,0.043c-0.094,0.126-0.177,0.26-0.238,0.407c-0.002,0.008-0.004,0.016-0.007,0.022
			c-0.054,0.135-0.087,0.279-0.108,0.427c-0.006,0.041-0.009,0.081-0.012,0.122c-0.003,0.047-0.014,0.092-0.014,0.14v52.995v125.314
			v45.552c0,1.032,0.835,1.868,1.867,1.868h103.681h51.841c1.032,0,1.867-0.835,1.867-1.868V241.57
			C309.48,241.542,309.474,241.517,309.472,241.49z M267.861,188.168l36.158,51.534h-45.99L267.861,188.168z M200.069,161.425
			h64.917v20.188h-64.917V161.425z M153.96,296.432h76.702v121.579H153.96V296.432z M253.905,463.564H153.96v-41.817h78.569
			c1.033,0,1.868-0.835,1.868-1.868V294.564c0-1.033-0.835-1.868-1.868-1.868H153.96v-49.259h99.945V463.564z M254.226,239.702
			h-98.268l43.145-54.354h65.493l-2.406,12.614L254.226,239.702z M305.746,463.564H257.64V243.437h48.105V463.564z"/>
	</g>
	<g>
		<g>
			<path fill="#619741" d="M1054.081,115.855c-0.269-6.799-0.297-11.898-0.282-14.603h-40.244c0.014,2.705-0.013,7.804-0.282,14.603
				H1054.081z"/>
			<path fill="#619741" d="M1011.24,143.48h44.875c-0.941-8.729-1.506-16.684-1.842-23.376h-41.192
				C1012.746,126.796,1012.181,134.752,1011.24,143.48z"/>
			<path fill="#FFFFFF" d="M1069.304,97.003c-1.063-9.579-9.208-17.051-19.069-17.051h-33.123c-9.851,0-17.987,7.473-19.045,17.051
				h11.156h48.907H1069.304z"/>
			<path fill="#619741" d="M969.427,427.187v46.834c0.084,0.275,2.909,15.296,17.996,15.296h92.504
				c15.094,0,17.925-15.021,18.042-15.66l-0.035-46.47H969.427z"/>
			<path fill="#619741" d="M1072.822,216.412c-8.947-22.369-13.706-47.46-16.228-68.684h-45.835
				c-2.521,21.224-7.279,46.314-16.229,68.684l-0.339,0.574c-0.305,0.36-30.112,36.435-24.797,65.93l0.028,10.244h128.511v-9.867
				c5.346-29.873-24.468-65.947-24.77-66.307L1072.822,216.412z"/>
			<path fill="#FFFFFF" d="M969.427,328.245v94.694h128.507V297.41H969.427v26.587h59.107v4.249H969.427z M1079.927,370.269v4.249
				h-91.219v-4.249H1079.927z"/>
			<path d="M1102.152,283.669c5.471-30.417-22.486-65.467-25.508-69.144c-8.648-21.737-13.291-46.088-15.777-66.797h7.5
				c1.174,0,2.124-0.95,2.124-2.124c0-1.174-0.95-2.124-2.124-2.124h-7.985c-0.95-8.725-1.521-16.685-1.858-23.376h21.403
				c1.174,0,2.124-0.949,2.124-2.124c0-1.173-0.95-2.125-2.124-2.125h-21.597c-0.272-6.843-0.297-11.944-0.282-14.603h15.622v-2.125
				c0-12.916-10.515-23.424-23.436-23.424h-33.123c-12.909,0-23.41,10.508-23.41,23.424v2.125h15.605
				c0.015,2.659-0.01,7.76-0.283,14.603h-8.75c-1.175,0-2.125,0.951-2.125,2.125c0,1.175,0.95,2.124,2.125,2.124h8.558
				c-0.337,6.692-0.907,14.651-1.857,23.376h-18.266c-1.173,0-2.124,0.95-2.124,2.124c0,1.174,0.951,2.124,2.124,2.124h17.78
				c-2.486,20.709-7.129,45.06-15.779,66.797c-3.021,3.676-30.979,38.715-25.53,68.768v9.867v4.249v129.777h0.003l0.027,47.195
				c0.03,0.192,3.514,19.185,22.214,19.185h92.504c18.708,0,22.193-18.992,22.255-19.545v-46.834v-4.248V293.161h-0.009
				L1102.152,283.669z M1009.223,97.003h-11.156c1.058-9.579,9.194-17.051,19.045-17.051h33.123c9.861,0,18.007,7.473,19.069,17.051
				h-11.174H1009.223z M1013.555,101.252h40.244c-0.015,2.705,0.014,7.804,0.282,14.603h-40.809
				C1013.542,109.057,1013.568,103.958,1013.555,101.252z M1054.273,120.104c0.336,6.692,0.9,14.648,1.842,23.376h-44.875
				c0.94-8.729,1.506-16.684,1.841-23.376H1054.273z M1079.927,489.317h-92.504c-15.087,0-17.912-15.021-17.996-15.296v-46.834
				h128.507l0.035,46.47C1097.852,474.296,1095.021,489.317,1079.927,489.317z M969.427,323.997V297.41h128.507v125.529H969.427
				v-94.694h59.107v-4.249H969.427z M1097.934,283.293v9.867H969.423l-0.028-10.244c-5.315-29.496,24.492-65.57,24.797-65.93
				l0.339-0.574c8.95-22.369,13.709-47.46,16.229-68.684h45.835c2.521,21.224,7.28,46.314,16.228,68.684l0.342,0.574
				C1073.466,217.347,1103.279,253.421,1097.934,283.293z"/>
			<rect x="988.708" y="370.269" width="91.219" height="4.249"/>
		</g>
		<path d="M1108.785,482.606c-1.411-0.279-2.811-0.626-4.194-1.039l-0.984,2.183c-0.263,0.583-0.555,1.145-0.862,1.697
			c1.389,0.434,2.789,0.817,4.203,1.128c0.183-0.357,0.369-0.709,0.535-1.077L1108.785,482.606z"/>
		<path d="M1062.989,465.449l0.981-2.179c-1.228-0.765-2.412-1.585-3.556-2.456l-1.302,2.889c-0.164,0.364-0.315,0.729-0.462,1.097
			c1.173,0.857,2.39,1.661,3.643,2.418C1062.503,466.623,1062.727,466.031,1062.989,465.449z"/>
		<g>
			<path fill="#F26A59" d="M1108.785,482.606c-1.411-0.279-2.811-0.626-4.194-1.039l100.753-223.564l1.396-3.1
				c0.121-0.27,0.232-0.542,0.342-0.813c4.449-11.02-0.581-23.726-11.51-28.646c-2.9-1.304-5.972-1.966-9.12-1.966
				c-8.452,0-16.171,4.814-19.935,12.327c-0.134,0.266-0.275,0.528-0.397,0.801l-1.396,3.097L1063.971,463.27
				c-1.228-0.765-2.412-1.585-3.556-2.456l-1.302,2.889c-0.164,0.364-0.315,0.729-0.462,1.097c1.173,0.857,2.39,1.661,3.643,2.418
				c-1.749,4.949-1.705,10.3,0.172,15.267c2.109,5.564,6.254,9.973,11.679,12.412c2.908,1.313,5.984,1.977,9.144,1.977
				c8.107,0,15.548-4.432,19.456-11.427c1.389,0.434,2.789,0.817,4.203,1.128c0.183-0.357,0.369-0.709,0.535-1.077L1108.785,482.606
				z M1100.994,450.149c-2.053,0-4.126-0.419-6.095-1.309l-12.196-5.494l1.741-3.876l12.196,5.494
				c5.651,2.555,12.473-0.285,15.195-6.319c1.322-2.928,1.479-6.174,0.451-9.14c-1.017-2.925-3.067-5.206-5.771-6.425
				c-7.792-3.514-11.132-13.019-7.456-21.186c3.685-8.167,13.028-11.951,20.813-8.45c5.655,2.546,12.478-0.29,15.195-6.327
				c2.716-6.038,0.33-13.02-5.324-15.569c-3.785-1.703-6.64-4.864-8.044-8.904c-1.393-3.998-1.187-8.359,0.584-12.284
				c1.768-3.927,4.896-6.975,8.813-8.583c3.951-1.625,8.206-1.584,11.996,0.118c5.654,2.548,12.472-0.286,15.194-6.321
				c2.722-6.033,0.337-13.017-5.32-15.568c-7.792-3.513-11.507-12.194-8.282-19.353c1.573-3.489,4.549-6.093,8.379-7.332
				c3.759-1.216,7.878-0.957,11.598,0.723c2.713,1.225,5.775,1.252,8.635,0.101c2.891-1.172,5.202-3.412,6.505-6.309
				c1.307-2.894,1.453-6.107,0.413-9.049c-1.023-2.907-3.076-5.181-5.788-6.401l-12.194-5.492l1.743-3.876l12.193,5.492
				c3.783,1.705,6.643,4.851,8.056,8.864c1.403,3.976,1.207,8.313-0.547,12.209c-1.76,3.898-4.88,6.917-8.789,8.5
				c-3.941,1.602-8.195,1.539-11.972-0.164c-2.767-1.246-5.794-1.446-8.545-0.554c-2.674,0.863-4.739,2.651-5.812,5.033
				c-2.265,5.022,0.498,11.185,6.155,13.734c7.792,3.515,11.132,13.019,7.446,21.188c-3.678,8.168-13.019,11.964-20.811,8.45
				c-2.706-1.215-5.769-1.236-8.639-0.064c-2.906,1.195-5.234,3.466-6.553,6.396c-1.32,2.931-1.478,6.179-0.45,9.146
				c1.021,2.925,3.072,5.208,5.778,6.425c7.792,3.51,11.137,13.016,7.455,21.188c-3.686,8.174-13.028,11.966-20.813,8.458
				c-5.66-2.554-12.478,0.287-15.195,6.32c-2.718,6.034-0.328,13.016,5.327,15.568c3.782,1.704,6.636,4.865,8.04,8.902
				c1.388,3.999,1.178,8.36-0.59,12.283C1112.959,446.492,1107.056,450.149,1100.994,450.149z"/>
			<path fill="#FFDC70" d="M1151.642,237.787c-18.202,0-34.798,10.716-42.276,27.3l-63.039,139.888
				c-5.08,11.288-5.467,23.878-1.08,35.452c3.107,8.21,8.358,15.201,15.169,20.387l100.114-222.149
				C1157.613,238.091,1154.647,237.787,1151.642,237.787z"/>
			<path fill="#FFDC70" d="M1117.688,483.487c18.194,0,34.78-10.717,42.253-27.301l63.032-139.899
				c5.086-11.28,5.473-23.864,1.093-35.437c-3.109-8.208-8.359-15.199-15.168-20.389l-100.113,222.145
				C1111.704,483.183,1114.676,483.487,1117.688,483.487z"/>
			<path d="M1228.039,279.346c-3.513-9.277-9.532-17.135-17.355-22.857c-0.023,0.053-0.043,0.105-0.066,0.158l-1.719,3.814
				c6.809,5.19,12.059,12.182,15.168,20.389c4.38,11.573,3.993,24.157-1.093,35.437l-63.032,139.899
				c-7.473,16.584-24.059,27.301-42.253,27.301c-3.013,0-5.984-0.304-8.903-0.881l-1.303,2.892
				c-0.166,0.367-0.353,0.719-0.535,1.077c3.515,0.77,7.102,1.162,10.741,1.162c19.863,0,37.967-11.699,46.128-29.802l63.032-139.9
				C1232.399,305.719,1232.822,291.98,1228.039,279.346z"/>
			<path d="M1060.415,460.814c-6.811-5.186-12.062-12.177-15.169-20.387c-4.387-11.574-4-24.165,1.08-35.452l63.039-139.888
				c7.479-16.584,24.074-27.3,42.276-27.3c3.006,0,5.972,0.304,8.888,0.878l1.715-3.808c0.027-0.059,0.059-0.113,0.086-0.172
				c-3.496-0.761-7.068-1.148-10.688-1.148c-19.87,0-37.985,11.699-46.153,29.803l-63.039,139.89
				c-5.541,12.321-5.961,26.066-1.178,38.703c3.519,9.288,9.547,17.148,17.38,22.866c0.146-0.367,0.298-0.733,0.462-1.097
				L1060.415,460.814z"/>
			<path d="M1083.288,496.873c-3.159,0-6.235-0.664-9.144-1.977c-5.425-2.439-9.569-6.848-11.679-12.412
				c-1.877-4.966-1.921-10.318-0.172-15.267c-1.253-0.757-2.47-1.562-3.643-2.418c-2.46,6.17-2.526,12.938-0.157,19.19
				c2.512,6.626,7.448,11.876,13.902,14.778c3.459,1.563,7.129,2.354,10.892,2.354c10.012,0,19.161-5.678,23.659-14.547
				c-1.414-0.311-2.814-0.694-4.203-1.128C1098.836,492.441,1091.396,496.873,1083.288,496.873z"/>
			<path d="M1060.415,460.814c1.144,0.87,2.328,1.69,3.556,2.456l100.753-223.568c-1.384-0.412-2.783-0.758-4.194-1.036
				L1060.415,460.814z"/>
			<path d="M1186.452,223.476c3.148,0,6.22,0.662,9.12,1.966c10.929,4.92,15.959,17.627,11.51,28.646
				c1.238,0.752,2.44,1.551,3.602,2.4c5.884-13.305-0.086-28.941-13.369-34.921c-3.454-1.554-7.108-2.34-10.862-2.34
				c-10.355,0-19.796,6.062-24.122,15.458c1.409,0.307,2.804,0.688,4.188,1.118C1170.281,228.29,1178,223.476,1186.452,223.476z"/>
			<path d="M1104.591,481.567c1.384,0.413,2.783,0.76,4.194,1.039l100.113-222.145c-1.143-0.871-2.327-1.692-3.555-2.458
				L1104.591,481.567z"/>
			<path d="M1206.74,254.902l-1.396,3.1c1.228,0.766,2.412,1.587,3.555,2.458l1.719-3.814c0.023-0.053,0.043-0.105,0.066-0.158
				c-1.161-0.849-2.363-1.647-3.602-2.4C1206.973,254.361,1206.861,254.632,1206.74,254.902z"/>
			<path d="M1160.529,238.665c1.411,0.278,2.811,0.625,4.194,1.036l1.396-3.097c0.122-0.273,0.264-0.535,0.397-0.801
				c-1.384-0.43-2.778-0.811-4.188-1.118c-0.027,0.059-0.059,0.113-0.086,0.172L1160.529,238.665z"/>
			<path fill="#F9EF65" d="M1115.711,440.393c1.768-3.923,1.978-8.284,0.59-12.283c-1.404-4.037-4.258-7.198-8.04-8.902
				c-5.655-2.552-8.045-9.534-5.327-15.568c2.718-6.033,9.535-8.874,15.195-6.32c7.784,3.508,17.127-0.284,20.813-8.458
				c3.682-8.172,0.337-17.678-7.455-21.188c-2.706-1.217-4.757-3.5-5.778-6.425c-1.027-2.967-0.87-6.214,0.45-9.146
				c1.318-2.929,3.646-5.201,6.553-6.396c2.87-1.172,5.933-1.151,8.639,0.064c7.792,3.514,17.133-0.282,20.811-8.45
				c3.686-8.17,0.346-17.674-7.446-21.188c-5.657-2.549-8.42-8.712-6.155-13.734c1.072-2.381,3.138-4.169,5.812-5.033
				c2.751-0.892,5.778-0.692,8.545,0.554c3.776,1.703,8.03,1.766,11.972,0.164c3.909-1.583,7.029-4.602,8.789-8.5
				c1.754-3.896,1.95-8.233,0.547-12.209c-1.413-4.013-4.272-7.159-8.056-8.864l-12.193-5.492l-1.743,3.876l12.194,5.492
				c2.712,1.22,4.765,3.494,5.788,6.401c1.04,2.941,0.894,6.155-0.413,9.049c-1.303,2.896-3.614,5.136-6.505,6.309
				c-2.859,1.152-5.922,1.125-8.635-0.101c-3.72-1.679-7.839-1.938-11.598-0.723c-3.83,1.239-6.806,3.842-8.379,7.332
				c-3.225,7.159,0.49,15.84,8.282,19.353c5.657,2.551,8.042,9.535,5.32,15.568c-2.723,6.036-9.54,8.869-15.194,6.321
				c-3.79-1.703-8.045-1.743-11.996-0.118c-3.917,1.608-7.045,4.656-8.813,8.583c-1.771,3.925-1.977,8.286-0.584,12.284
				c1.404,4.04,4.259,7.201,8.044,8.904c5.654,2.549,8.04,9.531,5.324,15.569c-2.718,6.037-9.54,8.874-15.195,6.327
				c-7.784-3.501-17.128,0.282-20.813,8.45c-3.676,8.167-0.336,17.672,7.456,21.186c2.704,1.219,4.755,3.5,5.771,6.425
				c1.028,2.966,0.871,6.212-0.451,9.14c-2.723,6.034-9.544,8.874-15.195,6.319l-12.196-5.494l-1.741,3.876l12.196,5.494
				c1.969,0.89,4.042,1.309,6.095,1.309C1107.056,450.149,1112.959,446.492,1115.711,440.393z"/>
		</g>
	</g>
	<g>
		<path fill="#F6F193" d="M471.224,297.101c0-9.008-7.332-16.335-16.342-16.335h-40.931c-0.974,19.319-16.998,34.736-36.556,34.736
			c-19.559,0-35.583-15.417-36.556-34.736h-40.938c-9.01,0-16.337,7.327-16.337,16.335v15.902
			c8.645,0.934,15.396,8.273,15.396,17.161c0,8.886-6.751,16.226-15.396,17.159v104.764c0,7.801,5.45,14.331,12.956,15.889
			c1.135-8.092,8.134-14.365,16.499-14.365c8.568,0,15.651,6.491,16.585,14.811h125.278c9.01,0,16.342-7.328,16.342-16.335v-2.211
			c-16.809-0.97-30.188-14.948-30.188-31.992s13.38-31.023,30.188-31.994v-35.714c-10.214-0.945-18.235-9.561-18.235-20.012
			c0-10.453,8.021-19.067,18.235-20.012V297.101z M355.167,431.719c-24.271,0-44.016-19.745-44.016-44.014
			c0-24.271,19.745-44.016,44.016-44.016c24.268,0,44.013,19.745,44.013,44.016C399.179,411.975,379.434,431.719,355.167,431.719z"
			/>
		<path d="M355.167,343.689c-24.271,0-44.016,19.745-44.016,44.016c0,24.27,19.745,44.014,44.016,44.014
			c24.268,0,44.013-19.745,44.013-44.014C399.179,363.434,379.434,343.689,355.167,343.689z M355.167,427.984
			c-22.21,0-40.281-18.068-40.281-40.279s18.071-40.281,40.281-40.281c22.21,0,40.277,18.07,40.277,40.281
			S377.377,427.984,355.167,427.984z"/>
		<path d="M473.092,313.802h1.867v-16.702c0-11.066-9.006-20.07-20.077-20.07h-44.617v1.867c0,18.124-14.745,32.869-32.87,32.869
			s-32.869-14.745-32.869-32.869v-1.867h-44.625c-11.067,0-20.073,9.004-20.073,20.07v19.538h1.868
			c7.458,0,13.529,6.068,13.529,13.526c0,7.457-6.07,13.525-13.529,13.525h-1.868v108.398c0,10.38,7.835,18.931,18.228,19.892
			l2.012,0.186l0.026-2.024c0.084-7.055,5.879-12.794,12.924-12.794c7.142,0,12.953,5.807,12.953,12.944v1.867h128.911
			c11.071,0,20.077-9.001,20.077-20.07v-5.894h-1.867c-15.616,0-28.321-12.7-28.321-28.31s12.706-28.312,28.321-28.312h1.867
			v-43.046h-1.867c-9.025,0-16.367-7.34-16.367-16.362C456.725,321.141,464.067,313.802,473.092,313.802z M452.989,330.164
			c0,10.452,8.021,19.067,18.235,20.012v35.714c-16.809,0.97-30.188,14.95-30.188,31.994s13.38,31.021,30.188,31.992v2.211
			c0,9.007-7.332,16.335-16.342,16.335H329.604c-0.934-8.32-8.018-14.811-16.585-14.811c-8.364,0-15.364,6.273-16.499,14.365
			c-7.506-1.558-12.956-8.088-12.956-15.889V347.323c8.645-0.934,15.396-8.273,15.396-17.159c0-8.888-6.751-16.227-15.396-17.161
			v-15.902c0-9.008,7.328-16.335,16.337-16.335h40.938c0.973,19.319,16.997,34.736,36.556,34.736
			c19.559,0,35.583-15.417,36.556-34.736h40.931c9.01,0,16.342,7.327,16.342,16.335v13.052
			C461.01,311.097,452.989,319.711,452.989,330.164z"/>
	</g>
	<g>
		<path fill="#FFFFFF" d="M688.691,861.341l-1.696,0.146l-17.276-52.935l-15.35,5.019l17.253,52.909l-1.398,0.879
			c-0.009,0-5.744,3.536-8.756,9.081c-3.437,6.307-1.706,12.592,5.14,18.662l0.572,0.521l0.331-0.102
			c2.854,0.965,5.416,1.095,7.749,0.433h0.009c3.566-1.098,6.513-3.844,8.908-8.237l1.794-3.495l1.877,1.018
			c4.962,2.686,9.365,3.469,13.075,2.333c3.871-1.169,5.976-4.164,6.882-5.826c1.533-6.519,0.709-11.562-2.219-14.92
			C700.417,860.896,689.873,861.271,688.691,861.341z"/>
		<path fill="#231F20" d="M708.75,864.078c-5.023-5.75-13.323-6.811-17.825-6.949l-0.954-0.015l-16.358-50.293l-0.091-4.356
			c-0.292-11.473-0.596-23.36,1.478-34.274c1.541-8.646,4.565-17.466,7.503-26.09c2.045-5.988,3.87-11.364,5.285-16.578
			c2.799-8.688,4.049-16.132,3.962-23.426c-0.071-4.722-0.635-9.341-1.211-14.132c-0.386-3.043-0.761-6.071-0.984-9.131
			c-0.272-4.112-0.352-8.367-0.43-12.594c-0.201-11.27-0.434-22.949-4.371-33.69c-6.864-18.827-15.872-32.779-26.767-41.479
			c-12.752-9.823-26.028-15.018-41.796-16.316c-5.195-0.6-17.656,0.316-24.006,2.192c-6.342,1.935-16.978,7.791-20.959,11.068
			c-8.948,6.88-15.76,14.729-20.802,24.003c-2.069,3.812-3.871,7.923-5.495,12.49c-4.407,13.208-4.368,29.799,0.106,49.32
			c2.523,11.158,8.657,21.034,14.617,30.646c2.479,3.986,4.541,7.321,6.493,10.818c1.339,2.48,2.597,5.021,3.831,7.545l0.28,0.58
			c2.002,4.145,4.083,8.438,6.709,12.594c3.887,6.202,8.952,11.742,15.973,17.443c4.1,3.692,8.684,7.314,13.119,10.806l0.658,0.518
			c7.009,5.529,14.266,11.247,20.226,17.647c7.604,7.973,13.777,18.047,19.749,27.792l2.05,3.325l1.261,0.189l16.658,50.987
			l-0.757,0.595c-2.015,1.533-5.735,4.774-8.101,9.116c-3.087,5.698-4.458,14.52,6.413,24.079c0.222,0.137,5.732,3.246,12.066,1.502
			l0.375-0.117c4.142-1.257,7.679-4.285,10.505-8.981l0.607-1.019l1.08,0.449c4.828,2.021,9.291,2.431,13.289,1.208
			c3.941-1.208,7.264-3.978,9.307-7.702l0.568-1.271C713.705,874.748,712.617,868.528,708.75,864.078z M652.188,809.836l-0.93-0.175
			l-0.99-1.63c-6.102-9.946-12.41-20.233-20.297-28.47c-6.196-6.66-13.635-12.531-20.951-18.288l-0.533-0.418
			c-4.513-3.564-8.802-6.932-12.839-10.562c-6.795-5.562-11.475-10.642-15.136-16.515c-2.512-3.956-4.443-7.947-6.56-12.304
			c-1.333-2.751-2.676-5.506-4.166-8.218c-1.955-3.547-4.191-7.133-6.351-10.624l-0.253-0.411
			c-5.751-9.271-11.699-18.849-14.064-29.336c-4.304-18.751-4.388-34.567-0.229-47.024c1.505-4.292,3.213-8.166,5.218-11.838
			c4.814-8.872,11.097-16.087,19.73-22.735c3.599-2.959,13.938-8.631,19.571-10.346l0.189-0.058
			c5.593-1.646,17.455-2.511,22.189-1.957c15.152,1.236,27.368,5.988,39.62,15.431c10.281,8.225,18.828,21.539,25.415,39.618
			c3.708,10.101,3.922,21.39,4.114,32.341c0.075,3.981,0.162,8.499,0.45,12.797c0.232,3.138,0.61,6.255,1.024,9.526
			c0.552,4.605,1.08,8.947,1.151,13.51c0.086,6.903-1.076,13.747-3.793,22.186c-1.379,5.122-3.129,10.245-4.97,15.684l-0.24,0.729
			c-2.984,8.7-6.07,17.694-7.659,26.7c-2.173,11.325-1.861,23.43-1.559,35.114l0.036,1.688l-16.772,5.49L652.188,809.836z
			 M707.805,881.747c-0.906,1.662-3.012,4.657-6.882,5.826c-3.71,1.136-8.113,0.353-13.075-2.333l-1.877-1.018l-1.794,3.495
			c-2.396,4.394-5.342,7.14-8.908,8.237h-0.009c-2.333,0.662-4.896,0.532-7.749-0.433l-0.331,0.102l-0.572-0.521
			c-6.845-6.07-8.577-12.355-5.14-18.662c3.012-5.545,8.747-9.081,8.756-9.081l1.398-0.879l-17.253-52.909l15.35-5.019
			l17.276,52.935l1.696-0.146c1.182-0.069,11.727-0.444,16.895,5.486C708.514,870.186,709.338,875.229,707.805,881.747z"/>
		<path fill="#F26A59" d="M669.342,802.564c-0.303-11.685-0.614-23.789,1.559-35.114c1.589-9.006,4.675-18,7.659-26.7l0.24-0.729
			c1.841-5.438,3.591-10.562,4.97-15.684c2.717-8.438,3.879-15.282,3.793-22.186c-0.071-4.563-0.6-8.904-1.151-13.51
			c-0.414-3.271-0.792-6.389-1.024-9.526c-0.288-4.298-0.375-8.815-0.45-12.797c-0.192-10.951-0.406-22.24-4.114-32.341
			c-6.587-18.079-15.134-31.394-25.415-39.618c-12.251-9.442-24.468-14.194-39.62-15.431c-4.734-0.554-16.596,0.312-22.189,1.957
			l-0.189,0.058c-5.633,1.715-15.973,7.387-19.571,10.346c-8.633,6.648-14.916,13.863-19.73,22.735
			c-2.005,3.672-3.713,7.546-5.218,11.838c-4.159,12.457-4.076,28.273,0.229,47.024c2.365,10.487,8.313,20.064,14.064,29.336
			l0.253,0.411c2.16,3.491,4.396,7.077,6.351,10.624c1.49,2.712,2.833,5.467,4.166,8.218c2.117,4.356,4.048,8.348,6.56,12.304
			c3.661,5.873,8.341,10.953,15.136,16.515c4.037,3.63,8.326,6.997,12.839,10.562l0.533,0.418
			c7.316,5.757,14.754,11.628,20.951,18.288c7.887,8.236,14.195,18.523,20.297,28.47l0.99,1.63l0.93,0.175l0.418-0.093l16.772-5.49
			L669.342,802.564z"/>
	</g>
	<g>
		<g>
			<path fill="#AE8F30" d="M336.635,530.618H242.32c-2.645,3.03-5.854,5.532-9.393,7.322c0.354,2.008,0.536,4.031,0.536,6.031
				c0,17.313-12.551,31.806-29.47,34.394c-0.812,6.88-6.804,12.195-13.907,12.014v202.656c0,1.146,0.935,2.077,2.085,2.077h144.464
				c1.148,0,2.078-0.931,2.078-2.077V532.696C338.712,531.551,337.783,530.618,336.635,530.618z M324.691,628.015
				c1.116,0,2.019,0.9,2.019,2.018c0,1.116-0.902,2.02-2.019,2.02h-32.824v88.689c0,1.114-0.903,2.017-2.019,2.017
				c-1.115,0-2.018-0.902-2.018-2.017v-88.689h-36.947v61.52c0,1.117-0.903,2.02-2.019,2.02c-1.116,0-2.019-0.902-2.019-2.02v-61.52
				h-25.681v138.373c0,1.115-0.902,2.02-2.019,2.02c-1.115,0-2.018-0.904-2.018-2.02V632.052h-18.479
				c-1.116,0-2.018-0.903-2.018-2.02c0-1.117,0.902-2.018,2.018-2.018h18.479v-30.76c0-1.117,0.903-2.018,2.018-2.018
				c1.117,0,2.019,0.9,2.019,2.018v30.76h25.681v-36.906c0-1.117,0.903-2.02,2.019-2.02c1.115,0,2.019,0.902,2.019,2.02v36.906
				h36.947v-46.171h-57.071c-1.116,0-2.018-0.903-2.018-2.018c0-1.116,0.902-2.019,2.018-2.019h57.071v-28.713
				c0-1.115,0.903-2.018,2.018-2.018c1.116,0,2.019,0.902,2.019,2.018v28.713h32.824c1.116,0,2.019,0.902,2.019,2.019
				c0,1.114-0.902,2.018-2.019,2.018h-32.824v46.171H324.691z"/>
			<path fill="#231F20" d="M324.691,581.844c1.116,0,2.019-0.903,2.019-2.018c0-1.116-0.902-2.019-2.019-2.019h-32.824v-28.713
				c0-1.115-0.903-2.018-2.019-2.018c-1.115,0-2.018,0.902-2.018,2.018v28.713h-57.071c-1.116,0-2.018,0.902-2.018,2.019
				c0,1.114,0.902,2.018,2.018,2.018h57.071v46.171h-36.947v-36.906c0-1.117-0.903-2.02-2.019-2.02c-1.116,0-2.019,0.902-2.019,2.02
				v36.906h-25.681v-30.76c0-1.117-0.902-2.018-2.019-2.018c-1.115,0-2.018,0.9-2.018,2.018v30.76h-18.479
				c-1.116,0-2.018,0.9-2.018,2.018c0,1.116,0.902,2.02,2.018,2.02h18.479v138.373c0,1.115,0.903,2.02,2.018,2.02
				c1.117,0,2.019-0.904,2.019-2.02V632.052h25.681v61.52c0,1.117,0.903,2.02,2.019,2.02c1.115,0,2.019-0.902,2.019-2.02v-61.52
				h36.947v88.689c0,1.114,0.903,2.017,2.018,2.017c1.116,0,2.019-0.902,2.019-2.017v-88.689h32.824c1.116,0,2.019-0.903,2.019-2.02
				c0-1.117-0.902-2.018-2.019-2.018h-32.824v-46.171H324.691z"/>
			<path fill="#231F20" d="M336.635,526.582h-95.252c-0.604,0-1.18,0.272-1.561,0.738c-2.705,3.303-6.157,5.935-9.993,7.62
				c-0.884,0.388-1.368,1.346-1.159,2.287c0.504,2.24,0.757,4.511,0.757,6.744c0,15.822-11.858,28.979-27.582,30.6
				c-0.544,0.057-1.041,0.279-1.379,0.71c-0.34,0.431-0.489,0.931-0.415,1.472c0,5.943-5.526,10.627-11.577,9.393
				c-0.587-0.116-1.21,0.03-1.683,0.414c-0.47,0.383-0.742,0.954-0.742,1.563v204.913c0,3.371,2.748,6.116,6.122,6.116h144.464
				c3.371,0,6.115-2.745,6.115-6.116V532.696C342.75,529.326,340.005,526.582,336.635,526.582z M338.712,793.035
				c0,1.146-0.93,2.077-2.078,2.077H192.171c-1.15,0-2.085-0.931-2.085-2.077V590.379c7.104,0.182,13.095-5.134,13.907-12.014
				c16.919-2.588,29.47-17.08,29.47-34.394c0-2-0.182-4.023-0.536-6.031c3.54-1.79,6.748-4.292,9.393-7.322h94.314
				c1.148,0,2.078,0.933,2.078,2.078V793.035z"/>
		</g>
		<g>
			<path fill="#231F20" d="M349.15,658.078c-9.153-0.995-19.3,1.573-25.602,6.159c-6.658,4.58-12.949,6.809-19.226,6.809
				c-7.123,0-14.4-2.733-23.651-8.899c-2.349-1.469-5.062-2.216-8.058-2.216c-7.537,0-15.871,4.629-23.742,9.355
				c-2.357,1.375-4.84,2.046-7.584,2.046c-6.232,0-12.93-3.521-19.41-6.924c-3-1.577-6.107-3.209-9.236-4.508
				c-11.897-4.203-24.512-2.785-33.928,3.815c-0.54,0.377-0.859,0.993-0.859,1.651v127.668c0,7.895,6.421,14.32,14.316,14.32
				h144.464c7.896,0,14.318-6.426,14.318-14.32V660.087C350.953,659.054,350.175,658.188,349.15,658.078z M346.917,793.035
				c0,5.67-4.613,10.284-10.282,10.284H192.171c-5.668,0-10.279-4.614-10.279-10.284V666.44c8.25-5.36,19.26-6.313,29.304-2.774
				c2.858,1.19,5.748,2.708,8.806,4.315c6.91,3.632,14.062,7.387,21.287,7.387c3.429,0,6.666-0.872,9.642-2.607
				c7.407-4.448,15.181-8.794,21.685-8.794c2.259,0,4.194,0.526,5.87,1.569c9.902,6.605,17.873,9.547,25.839,9.547
				c7.124,0,14.161-2.459,21.555-7.549c5.18-3.767,13.403-5.972,21.039-5.586V793.035z"/>
			<path fill="#85D3E4" d="M325.877,667.534c-7.394,5.09-14.431,7.549-21.555,7.549c-7.966,0-15.937-2.941-25.839-9.547
				c-1.675-1.043-3.611-1.569-5.87-1.569c-6.503,0-14.277,4.346-21.685,8.794c-2.976,1.735-6.212,2.607-9.642,2.607
				c-7.225,0-14.376-3.755-21.287-7.387c-3.059-1.607-5.948-3.125-8.806-4.315c-10.044-3.538-21.054-2.586-29.304,2.774v126.595
				c0,5.67,4.611,10.284,10.279,10.284h144.464c5.669,0,10.282-4.614,10.282-10.284V661.948
				C339.28,661.563,331.057,663.768,325.877,667.534z"/>
		</g>
	</g>
	<g>
		<path fill="#EA9BC3" d="M431.622,702.78l-1.124-0.632l0.273-1.266c1.092-4.933,1.647-9.988,1.647-15.005
			c0-38.506-31.331-69.835-69.847-69.835c-38.505,0-69.835,31.329-69.835,69.835c0,5.017,0.548,10.066,1.632,15.005l0.28,1.266
			l-1.127,0.632c-7.781,4.344-12.614,12.56-12.614,21.448c0,13.539,11.013,24.546,24.554,24.546c1.632,0,3.327-0.18,5.042-0.541
			c3.76-0.785,7.308-2.458,10.279-4.839c0.868-0.699,1.688-1.456,2.452-2.262l1.257-1.329l1.266,1.329
			c4.695,4.933,11.002,7.642,17.779,7.642c6.764,0,13.087-2.709,17.773-7.642l1.262-1.329l1.257,1.329
			c4.695,4.933,11.018,7.642,17.783,7.642c6.771,0,13.086-2.709,17.782-7.642l1.264-1.329l1.25,1.329
			c0.78,0.818,1.604,1.569,2.463,2.262c2.961,2.381,6.52,4.054,10.273,4.839c1.715,0.361,3.41,0.541,5.038,0.541
			c13.548,0,24.559-11.007,24.559-24.546C444.24,715.333,439.407,707.124,431.622,702.78z M338.443,641.948
			c-16.028,8.819-25.986,25.655-25.986,43.93c0,6.105,1.084,12.062,3.213,17.697c0.347,0.896-0.11,1.904-1.009,2.25
			c-0.209,0.074-0.414,0.115-0.615,0.115c-0.709,0-1.364-0.433-1.631-1.125c-2.278-6.036-3.43-12.408-3.43-18.938
			c0-19.541,10.635-37.547,27.771-46.98c0.835-0.457,1.896-0.154,2.365,0.69C339.586,640.434,339.278,641.485,338.443,641.948z
			 M380.735,637.266c-0.244,0.727-0.914,1.196-1.651,1.196c-0.17,0-0.359-0.043-0.548-0.102c-8.802-2.956-18.554-3.383-27.51-1.26
			c-0.934,0.245-1.877-0.346-2.097-1.292c-0.221-0.937,0.354-1.867,1.297-2.091c9.582-2.274,20-1.819,29.422,1.355
			C380.558,635.367,381.047,636.356,380.735,637.266z"/>
		<path fill="#F6F193" d="M409.583,750.333c-0.071-0.013-0.143-0.041-0.225-0.076c-0.769-0.296-1.519-0.648-2.263-1.019
			c-0.134-0.069-0.269-0.137-0.394-0.202c-0.726-0.381-1.432-0.794-2.11-1.218c-0.122-0.08-0.229-0.154-0.342-0.233
			c-0.71-0.471-1.404-0.951-2.058-1.477c-0.528-0.418-1.041-0.868-1.534-1.326c-5.214,4.83-11.903,7.471-19.046,7.471
			c-7.143,0-13.837-2.641-19.04-7.471c-5.199,4.83-11.893,7.471-19.035,7.471c-7.139,0-13.836-2.641-19.04-7.471
			c-0.497,0.458-1.006,0.897-1.534,1.326c-0.667,0.532-1.364,1.023-2.077,1.486c-0.103,0.069-0.205,0.144-0.311,0.215
			c-0.695,0.433-1.407,0.853-2.145,1.233c-0.113,0.065-0.237,0.126-0.358,0.182c-0.749,0.384-1.518,0.736-2.295,1.037
			c-0.063,0.03-0.13,0.043-0.184,0.071c-0.769,0.29-1.542,0.55-2.318,0.779c-0.075,0.023-0.134,0.054-0.209,0.073l33.313,107.27
			c4.439,14.297,10.344,22.495,16.194,22.495s11.755-8.198,16.182-22.495l33.328-107.27c-0.071-0.02-0.138-0.05-0.201-0.073
			C411.101,750.883,410.335,750.623,409.583,750.333z"/>
		<path fill="#231F20" d="M379.647,635.073c-9.421-3.175-19.84-3.63-29.422-1.355c-0.943,0.224-1.518,1.154-1.297,2.091
			c0.22,0.946,1.163,1.537,2.097,1.292c8.956-2.123,18.708-1.696,27.51,1.26c0.189,0.059,0.378,0.102,0.548,0.102
			c0.737,0,1.407-0.47,1.651-1.196C381.047,636.356,380.558,635.367,379.647,635.073z"/>
		<path fill="#231F20" d="M336.755,638.897c-17.136,9.434-27.771,27.439-27.771,46.98c0,6.529,1.151,12.901,3.43,18.938
			c0.268,0.692,0.922,1.125,1.631,1.125c0.201,0,0.406-0.041,0.615-0.115c0.898-0.346,1.355-1.354,1.009-2.25
			c-2.128-5.636-3.213-11.592-3.213-17.697c0-18.274,9.958-35.11,25.986-43.93c0.835-0.463,1.143-1.515,0.678-2.36
			C338.651,638.743,337.591,638.44,336.755,638.897z"/>
		<path fill="#231F20" d="M434.432,700.402c0.97-4.79,1.455-9.665,1.455-14.524c0-40.434-32.887-73.319-73.315-73.319
			c-40.424,0-73.313,32.886-73.313,73.319c0,4.842,0.489,9.72,1.451,14.524c-8.231,5.093-13.28,14.11-13.28,23.826
			c0,16.813,14.873,30.42,32.225,27.693l33.404,107.565c4.991,16.085,11.925,24.937,19.513,24.937
			c7.588,0,14.526-8.852,19.508-24.937l33.42-107.594c1.423,0.217,2.826,0.359,4.182,0.359c15.464,0,28.039-12.565,28.039-28.024
			C447.721,714.513,442.659,705.495,434.432,700.402z M378.753,858.455c-4.427,14.297-10.332,22.495-16.182,22.495
			s-11.755-8.198-16.194-22.495l-33.313-107.27c0.075-0.02,0.134-0.05,0.209-0.073c0.777-0.229,1.549-0.489,2.318-0.779
			c0.054-0.028,0.122-0.041,0.184-0.071c0.777-0.301,1.546-0.653,2.295-1.037c0.122-0.056,0.245-0.116,0.358-0.182
			c0.738-0.381,1.45-0.801,2.145-1.233c0.106-0.071,0.208-0.146,0.311-0.215c0.713-0.463,1.411-0.954,2.077-1.486
			c0.528-0.429,1.037-0.868,1.534-1.326c5.204,4.83,11.901,7.471,19.04,7.471c7.143,0,13.836-2.641,19.035-7.471
			c5.203,4.83,11.897,7.471,19.04,7.471c7.143,0,13.832-2.641,19.046-7.471c0.493,0.458,1.006,0.908,1.534,1.326
			c0.654,0.525,1.348,1.006,2.058,1.477c0.114,0.079,0.22,0.153,0.342,0.233c0.678,0.424,1.384,0.837,2.11,1.218
			c0.125,0.065,0.26,0.133,0.394,0.202c0.744,0.37,1.494,0.723,2.263,1.019c0.082,0.035,0.153,0.063,0.225,0.076
			c0.752,0.29,1.518,0.55,2.297,0.779c0.063,0.023,0.13,0.054,0.201,0.073L378.753,858.455z M419.682,748.774
			c-1.627,0-3.323-0.18-5.038-0.541c-3.753-0.785-7.312-2.458-10.273-4.839c-0.859-0.692-1.683-1.443-2.463-2.262l-1.25-1.329
			l-1.264,1.329c-4.695,4.933-11.011,7.642-17.782,7.642c-6.765,0-13.088-2.709-17.783-7.642l-1.257-1.329l-1.262,1.329
			c-4.687,4.933-11.01,7.642-17.773,7.642c-6.777,0-13.084-2.709-17.779-7.642l-1.266-1.329l-1.257,1.329
			c-0.764,0.806-1.584,1.563-2.452,2.262c-2.971,2.381-6.52,4.054-10.279,4.839c-1.715,0.361-3.41,0.541-5.042,0.541
			c-13.541,0-24.554-11.007-24.554-24.546c0-8.889,4.833-17.104,12.614-21.448l1.127-0.632l-0.28-1.266
			c-1.084-4.938-1.632-9.988-1.632-15.005c0-38.506,31.331-69.835,69.835-69.835c38.516,0,69.847,31.329,69.847,69.835
			c0,5.017-0.556,10.072-1.647,15.005l-0.273,1.266l1.124,0.632c7.785,4.344,12.618,12.553,12.618,21.448
			C444.24,737.768,433.229,748.774,419.682,748.774z"/>
	</g>
</g>
</svg>
